<svg width="53" height="45" viewBox="0 0 53 45" fill="none" xmlns="http://www.w3.org/2000/svg">
<path d="M1.355 15.19H11.805V45H1.355V15.19ZM6.58 11.89C4.67333 11.89 3.13333 11.3583 1.96 10.295C0.786667 9.23166 0.2 7.91167 0.2 6.335C0.2 4.75833 0.786667 3.43833 1.96 2.375C3.13333 1.31167 4.67333 0.779999 6.58 0.779999C8.48667 0.779999 10.0267 1.29333 11.2 2.32C12.3733 3.31 12.96 4.59333 12.96 6.17C12.96 7.82 12.3733 9.195 11.2 10.295C10.0267 11.3583 8.48667 11.89 6.58 11.89ZM40.2112 14.695C43.9145 14.695 46.8845 15.795 49.1212 17.995C51.3945 20.195 52.5312 23.5133 52.5312 27.95V45H42.0812V29.655C42.0812 25.585 40.4495 23.55 37.1862 23.55C35.3895 23.55 33.9412 24.1367 32.8412 25.31C31.7779 26.4833 31.2462 28.2433 31.2462 30.59V45H20.7962V15.19H30.7512V18.435C31.9245 17.225 33.3179 16.3083 34.9312 15.685C36.5445 15.025 38.3045 14.695 40.2112 14.695Z" fill="white"/>
</svg>
