<svg width="35" height="35" viewBox="0 0 35 35" fill="none" xmlns="http://www.w3.org/2000/svg">
<path d="M24.7916 2.91699H10.2083C6.18122 2.91699 2.91663 6.18158 2.91663 10.2087V24.792C2.91663 28.8191 6.18122 32.0837 10.2083 32.0837H24.7916C28.8187 32.0837 32.0833 28.8191 32.0833 24.792V10.2087C32.0833 6.18158 28.8187 2.91699 24.7916 2.91699Z" stroke="#F8F8F8" stroke-width="2.91667" stroke-linecap="round" stroke-linejoin="round"/>
<path d="M25.5208 9.47949H25.5354M23.3333 16.5816C23.5133 17.7953 23.306 19.0348 22.7409 20.1239C22.1758 21.213 21.2817 22.0961 20.1857 22.6478C19.0897 23.1994 17.8477 23.3914 16.6363 23.1965C15.425 23.0015 14.3059 22.4296 13.4383 21.562C12.5707 20.6944 11.9988 19.5754 11.8038 18.364C11.6089 17.1526 11.8009 15.9106 12.3525 14.8146C12.9042 13.7187 13.7873 12.8245 14.8764 12.2594C15.9655 11.6943 17.205 11.487 18.4187 11.667C19.6567 11.8506 20.8029 12.4275 21.6879 13.3124C22.5728 14.1974 23.1497 15.3436 23.3333 16.5816Z" stroke="#F8F8F8" stroke-width="2.91667" stroke-linecap="round" stroke-linejoin="round"/>
</svg>
