<svg width="29" height="25" viewBox="0 0 29 25" fill="none" xmlns="http://www.w3.org/2000/svg">
<path d="M25.9187 6.6668V7.42514C25.9323 9.62747 25.5085 11.8106 24.6719 13.8479C23.8354 15.8852 22.6027 17.7362 21.0454 19.2935C19.4881 20.8508 17.6371 22.0835 15.5998 22.92C13.5625 23.7566 11.3794 24.1804 9.17704 24.1668C5.97183 24.1761 2.83213 23.2595 0.135376 21.5272H1.59371C4.23834 21.5273 6.80629 20.6388 8.88538 19.0043C7.65299 18.9933 6.45576 18.5922 5.46543 17.8586C4.4751 17.125 3.74256 16.0967 3.37288 14.921C3.74423 14.9802 4.11975 15.0094 4.49579 15.0085C5.01663 15.0047 5.53532 14.9411 6.04163 14.8189C4.72403 14.5499 3.53983 13.834 2.68944 12.7923C1.83904 11.7505 1.37468 10.447 1.37496 9.10222C2.19029 9.55197 3.09881 9.80656 4.02913 9.84597C3.20826 9.30297 2.5357 8.56391 2.07227 7.69563C1.60885 6.82735 1.36919 5.85724 1.37496 4.87305C1.37678 3.84854 1.64839 2.84258 2.16246 1.95638C3.6379 3.77587 5.47905 5.26517 7.56668 6.32783C9.65432 7.39049 11.9419 8.00281 14.2812 8.12514C14.1887 7.68378 14.1398 7.23439 14.1354 6.78347C14.0974 5.58308 14.4308 4.40022 15.0902 3.39641C15.7495 2.3926 16.7027 1.61678 17.8194 1.17487C18.9361 0.732959 20.1621 0.646512 21.3298 0.927329C22.4974 1.20815 23.55 1.84254 24.3437 2.74388C25.6635 2.47877 26.927 1.98525 28.077 1.28555C27.6378 2.64641 26.7141 3.79853 25.4812 4.52305C26.6533 4.39639 27.7991 4.09149 28.8791 3.61888C28.0794 4.78695 27.0942 5.81649 25.9625 6.6668H25.9187Z" fill="#F8F8F8"/>
</svg>
